<svg width="29" height="29" viewBox="0 0 29 29" fill="none" xmlns="http://www.w3.org/2000/svg">
<path d="M23.5625 0C25.0603 0 26.341 0.531793 27.4046 1.59538C28.4682 2.65896 29 3.93967 29 5.4375V23.5625C29 25.0603 28.4682 26.341 27.4046 27.4046C26.341 28.4682 25.0603 29 23.5625 29H5.4375C3.93967 29 2.65896 28.4682 1.59538 27.4046C0.531793 26.341 0 25.0603 0 23.5625L0 5.4375C0 3.93967 0.531793 2.65896 1.59538 1.59538C2.65896 0.531793 3.93967 0 5.4375 0L23.5625 0ZM13.1784 14.5C13.1784 13.3924 12.7882 12.4484 12.0078 11.668C11.2274 10.8876 10.2834 10.4974 9.17578 10.4974C8.06814 10.4974 7.12413 10.8876 6.34375 11.668C5.56337 12.4484 5.17318 13.3924 5.17318 14.5C5.17318 15.6076 5.56337 16.5516 6.34375 17.332C7.12413 18.1124 8.06814 18.5026 9.17578 18.5026C10.2834 18.5026 11.2274 18.1124 12.0078 17.332C12.7882 16.5516 13.1784 15.6076 13.1784 14.5ZM23.8268 14.5C23.8268 13.3924 23.4366 12.4484 22.6562 11.668C21.8759 10.8876 20.9319 10.4974 19.8242 10.4974C18.7166 10.4974 17.7726 10.8876 16.9922 11.668C16.2118 12.4484 15.8216 13.3924 15.8216 14.5C15.8216 15.6076 16.2118 16.5516 16.9922 17.332C17.7726 18.1124 18.7166 18.5026 19.8242 18.5026C20.9319 18.5026 21.8759 18.1124 22.6562 17.332C23.4366 16.5516 23.8268 15.6076 23.8268 14.5Z" fill="#F6DA65" fill-opacity="0.79"/>
</svg>
