<svg width="29" height="29" viewBox="0 0 29 29" fill="none" xmlns="http://www.w3.org/2000/svg">
<path d="M14.5 9.74011C11.8791 9.74011 9.74014 11.879 9.74014 14.5C9.74014 17.121 11.8791 19.2599 14.5 19.2599C17.121 19.2599 19.26 17.121 19.26 14.5C19.26 11.879 17.121 9.74011 14.5 9.74011ZM28.7762 14.5C28.7762 12.5289 28.7941 10.5757 28.6834 8.60816C28.5727 6.32283 28.0513 4.29461 26.3802 2.62346C24.7055 0.948747 22.6808 0.430978 20.3955 0.320283C18.4244 0.209587 16.4711 0.227442 14.5036 0.227442C12.5325 0.227442 10.5793 0.209587 8.61176 0.320283C6.32644 0.430978 4.29821 0.952318 2.62706 2.62346C0.952349 4.29818 0.434579 6.32283 0.323884 8.60816C0.213188 10.5793 0.231043 12.5325 0.231043 14.5C0.231043 16.4675 0.213188 18.4243 0.323884 20.3919C0.434579 22.6772 0.95592 24.7054 2.62706 26.3766C4.30178 28.0513 6.32644 28.569 8.61176 28.6797C10.5829 28.7904 12.5361 28.7726 14.5036 28.7726C16.4747 28.7726 18.428 28.7904 20.3955 28.6797C22.6808 28.569 24.709 28.0477 26.3802 26.3766C28.0549 24.7019 28.5727 22.6772 28.6834 20.3919C28.7976 18.4243 28.7762 16.4711 28.7762 14.5ZM14.5 21.8238C10.4472 21.8238 7.17629 18.5529 7.17629 14.5C7.17629 10.4471 10.4472 7.17626 14.5 7.17626C18.5529 7.17626 21.8238 10.4471 21.8238 14.5C21.8238 18.5529 18.5529 21.8238 14.5 21.8238ZM22.1238 8.58673C21.1775 8.58673 20.4133 7.82258 20.4133 6.87631C20.4133 5.93004 21.1775 5.16589 22.1238 5.16589C23.07 5.16589 23.8342 5.93004 23.8342 6.87631C23.8345 7.10101 23.7904 7.32355 23.7046 7.5312C23.6187 7.73884 23.4927 7.92751 23.3338 8.08639C23.175 8.24528 22.9863 8.37125 22.7786 8.45711C22.571 8.54297 22.3484 8.58702 22.1238 8.58673Z" fill="#F6DA65" fill-opacity="0.79"/>
</svg>
