<svg width="29" height="20" viewBox="0 0 29 20" fill="none" xmlns="http://www.w3.org/2000/svg">
<path d="M29 4.35498C29.0014 5.40665 28.6088 6.42667 27.8884 7.2435L17.7153 18.5753C17.3305 19.0197 16.8418 19.3786 16.2853 19.6252C15.7289 19.8719 15.1191 20 14.5014 20C13.8837 20 13.2739 19.8719 12.7175 19.6252C12.1611 19.3786 11.6723 19.0197 11.2876 18.5753L1.11438 7.2435C0.519924 6.56129 0.145841 5.73926 0.0347602 4.87107C-0.0763205 4.00288 0.0800689 3.12346 0.486108 2.33303C0.815418 1.64606 1.35282 1.06078 2.03412 0.647076C2.71542 0.233373 3.51183 0.00873847 4.32823 -5.03571e-07L24.6746 -5.03571e-07C25.491 0.00873847 26.2874 0.233373 26.9687 0.647076C27.65 1.06078 28.1874 1.64606 28.5167 2.33303C28.8308 2.9682 28.9955 3.65723 29 4.35498V4.35498Z" fill="white"/>
</svg>
