<svg width="28" height="21" viewBox="0 0 28 21" fill="none" xmlns="http://www.w3.org/2000/svg">
<path d="M1.40084 3.8147e-06H26.6016C26.8567 0.000804901 27.1068 0.0712986 27.3249 0.203896C27.5431 0.336493 27.7209 0.526173 27.8395 0.752518C27.958 0.978865 28.0126 1.23331 27.9975 1.48845C27.9824 1.7436 27.8982 1.98979 27.7538 2.20053L15.1534 20.433C14.6312 21.189 13.374 21.189 12.8504 20.433L0.25001 2.20053C0.104161 1.99023 0.0186316 1.74392 0.00271457 1.48834C-0.0132024 1.23277 0.0411018 0.977716 0.159727 0.750893C0.278353 0.524067 0.456762 0.334143 0.675572 0.201761C0.894382 0.0693779 1.14522 -0.000400543 1.40084 3.8147e-06ZM14.0012 17.1708L23.9303 2.805H4.07212L14.0012 17.1708Z" fill="white"/>
</svg>
