<svg width="20" height="29" viewBox="0 0 20 29" fill="none" xmlns="http://www.w3.org/2000/svg">
<path d="M15.645 29C14.5934 29.0014 13.5733 28.6088 12.7565 27.8884L1.42466 17.7153C0.980283 17.3305 0.621413 16.8418 0.374754 16.2853C0.128096 15.7289 0 15.1191 0 14.5014C0 13.8837 0.128096 13.2739 0.374754 12.7175C0.621413 12.1611 0.980283 11.6723 1.42466 11.2876L12.7565 1.11438C13.4387 0.519924 14.2607 0.145841 15.1289 0.0347602C15.9971 -0.0763205 16.8765 0.0800689 17.667 0.486108C18.3539 0.815418 18.9392 1.35282 19.3529 2.03412C19.7666 2.71542 19.9913 3.51183 20 4.32823V24.6746C19.9913 25.491 19.7666 26.2874 19.3529 26.9687C18.9392 27.65 18.3539 28.1874 17.667 28.5167C17.0318 28.8308 16.3428 28.9955 15.645 29Z" fill="white"/>
</svg>
